HIERARCHY
ROOT hip
{
	OFFSET 0.000000 0.000000 0.000000 
	CHANNELS 6 Xposition Yposition Zposition Xrotation Zrotation Yrotation
	JOINT abdomen
	{
		OFFSET 0.000000 3.402643 0.000000 
		CHANNELS 3 Xrotation Zrotation Yrotation
		JOINT chest
		{
			OFFSET 0.000000 8.438565 -0.680529 
			CHANNELS 3 Xrotation Zrotation Yrotation
			JOINT neck
			{
				OFFSET 0.000000 10.207942 -0.272212 
				CHANNELS 3 Xrotation Zrotation Yrotation
				JOINT head
				{
					OFFSET 0.000000 3.130431 0.000000 
					CHANNELS 3 Xrotation Zrotation Yrotation
					End Site
					{
						OFFSET 0.000000 3.130435 0.000000 
					}
				}
			}
			JOINT lCollar
			{
				OFFSET 3.470700 6.669187 -0.816635 
				CHANNELS 3 Yrotation Zrotation Xrotation
				JOINT lShldr
				{
					OFFSET 3.198488 0.000000 0.000000 
					CHANNELS 3 Zrotation Yrotation Xrotation
					JOINT lForeArm
					{
						OFFSET 10.139888 0.000000 0.000000 
						CHANNELS 3 Yrotation Zrotation Xrotation
						JOINT lHand
						{
							OFFSET 8.370511 0.000000 0.000000 
							CHANNELS 3 Zrotation Yrotation Xrotation
							End Site
							{
								OFFSET 4.083176 0.000000 0.000000 
							}
						}
					}
				}
			}
			JOINT rCollar
			{
				OFFSET -3.470700 6.669187 -0.816635 
				CHANNELS 3 Yrotation Zrotation Xrotation
				JOINT rShldr
				{
					OFFSET -3.198488 0.000000 0.000000 
					CHANNELS 3 Zrotation Yrotation Xrotation
					JOINT rForeArm
					{
						OFFSET -10.139888 0.000000 0.000000 
						CHANNELS 3 Yrotation Zrotation Xrotation
						JOINT rHand
						{
							OFFSET -8.370511 0.000000 0.000000 
							CHANNELS 3 Zrotation Yrotation Xrotation
							End Site
							{
								OFFSET -4.083176 0.000000 0.000000 
							}
						}
					}
				}
			}
		}
	}
	JOINT lThigh
	{
		OFFSET 5.308129 -1.633274 1.361059 
		CHANNELS 3 Xrotation Zrotation Yrotation
		JOINT lShin
		{
			OFFSET -2.041588 -20.007561 0.000000 
			CHANNELS 3 Xrotation Zrotation Yrotation
			JOINT lFoot
			{
				OFFSET 0.000000 -19.190928 -1.224953 
				CHANNELS 3 Xrotation Yrotation Zrotation
				End Site
				{
					OFFSET 0.000000 -2.449906 4.627600 
				}
			}
		}
	}
	JOINT rThigh
	{
		OFFSET -5.308129 -1.633274 1.361059 
		CHANNELS 3 Xrotation Zrotation Yrotation
		JOINT rShin
		{
			OFFSET 2.041588 -20.007561 0.000000 
			CHANNELS 3 Xrotation Zrotation Yrotation
			JOINT rFoot
			{
				OFFSET 0.000000 -19.190928 -1.224953 
				CHANNELS 3 Xrotation Yrotation Zrotation
				End Site
				{
					OFFSET 0.000000 -2.449906 4.627600 
				}
			}
		}
	}
}
MOTION
Frames: 11
Frame Time: 0.033333
-11.832678 43.941158 75.249786 -10.732421 -7.382812 123.563202 17.158203 7.519532 5.919247 -18.281250 1.835938 3.613281 -7.656250 -2.050781 21.308245 18.759766 -12.138672 20.566406 0.351563 0.263672 -0.009811 -67.382813 10.273438 -8.105470 -93.505859 -3.281250 -46.015068 33.789082 -129.931641 -25.944988 7.382812 3.417969 -0.273438 63.281250 0.898438 23.320465 53.203125 2.988281 -29.990236 10.712891 8.964844 1.875000 -38.837776 32.636509 21.752197 33.310444 -1.193593 -2.330971 -2.646765 3.169319 -4.963451 -22.796911 -7.898497 0.127031 48.579235 -0.322256 3.007137 -33.841835 -16.754084 -5.984787 
-11.991184 43.801521 75.153633 -10.380860 -8.447267 122.314453 17.148436 7.294922 6.025392 -18.105469 1.484375 3.789063 -8.876953 -2.158203 21.845335 18.759766 -12.314453 20.917971 0.527344 0.087890 -0.009781 -66.650391 10.195313 -9.062499 -93.115234 -3.388672 -47.753334 34.902348 -130.429688 -26.638290 7.021484 3.066406 -0.195835 63.632816 2.011719 22.431986 52.939453 3.017578 -31.758327 14.091797 5.166016 1.368069 -39.168823 32.947025 23.108076 34.537067 -1.096071 -2.541724 -3.384089 3.171368 -4.774765 -24.326582 -8.932238 0.436768 49.649063 -0.163502 2.976183 -34.327126 -15.508520 -5.550487 
-12.212899 43.588871 75.005409 -9.853516 -9.843749 120.576172 17.128906 6.904297 6.075393 -18.281252 1.132813 3.955078 -10.097656 -2.089844 22.372690 18.417969 -12.656250 21.433407 0.703125 0.087891 -0.009766 -65.625000 9.951173 -10.652607 -92.392578 -3.554688 -49.823616 35.683613 -130.996094 -27.116747 7.021485 2.714844 -0.156713 64.589844 3.271485 21.113283 51.591797 3.183594 -34.501953 17.031248 0.625000 0.175781 -39.724747 33.179558 24.997938 36.118092 -1.121617 -2.631263 -4.560011 4.136047 -4.934332 -26.586395 -10.154325 1.188416 51.053284 -0.339716 2.957672 -34.271278 -14.040806 -4.797095 
-12.480793 43.295128 74.798286 -9.316407 -11.435548 118.613281 17.119141 6.738282 6.015625 -18.632813 0.605469 3.955182 -11.308593 -1.826172 23.046562 18.066406 -13.007813 22.126709 0.878906 0.263672 -0.009766 -64.238281 9.853516 -12.529297 -91.406250 -3.466797 -52.577534 36.503918 -131.835938 -27.546335 7.021484 2.373047 -0.117592 66.044922 4.716797 19.307444 48.457035 3.154297 -36.123585 21.220703 -2.412109 -1.201172 -40.770500 33.679096 27.302666 38.926800 -0.770917 -2.662414 -6.905391 5.736642 -4.358245 -29.550512 -11.562373 2.233239 52.808353 -0.525378 2.944322 -34.697720 -13.012219 -3.605790 
-12.759712 42.901310 74.491798 -8.623047 -13.017578 116.367188 17.275389 6.347655 6.064453 -19.160158 -0.097656 3.945312 -12.343750 -1.562500 23.720703 17.539064 -13.359374 22.810246 1.054688 0.791013 -0.029432 -62.490234 9.609375 -14.803056 -90.166016 -3.515625 -55.703129 37.246113 -132.421875 -27.878304 7.207030 2.177735 -0.273438 67.998047 5.693359 16.005859 44.833988 3.164063 -36.709526 26.123047 -5.048829 -2.754766 -41.990952 34.849739 30.150536 43.149052 -0.599168 -2.965427 -10.087205 9.714811 -3.479346 -32.753334 -12.968562 3.698261 54.934185 -0.203133 3.017402 -34.859962 -11.650880 -3.214166 
-13.035446 42.433632 74.087082 -7.910156 -14.423828 113.896484 17.617188 6.181641 6.005860 -19.335938 -0.449219 4.121094 -13.730469 -1.279297 24.570313 17.011719 -13.535156 23.681643 1.054688 1.142574 -0.029492 -60.859375 9.541016 -17.529295 -88.662109 -3.398438 -58.720707 37.685570 -132.861328 -28.141924 7.558595 1.826172 -0.244451 69.531250 6.083984 12.413145 42.958984 3.320313 -38.056644 28.203125 -8.330078 -4.824218 -42.517570 36.202156 33.626152 48.051926 -0.443982 -3.328816 -13.796562 16.398714 -0.642207 -36.019470 -14.246327 5.201304 57.024059 -0.525641 3.109528 -35.148430 -10.616189 -2.229706 
-13.263775 41.927238 73.531807 -7.382813 -15.126953 111.572266 18.496092 6.289063 6.230469 -19.511719 -0.791016 4.121094 -15.468749 -1.171875 25.439253 16.660156 -13.535155 24.372717 1.406250 1.494141 -0.049083 -58.789063 8.925781 -20.722654 -86.533203 -3.564453 -61.884766 37.890636 -133.623047 -28.151600 8.085938 1.474609 -0.205329 70.458992 5.419922 8.926704 42.832035 3.281250 -41.387283 26.523438 -11.904297 -6.427794 -42.714100 38.662472 38.033165 54.196461 -0.112908 -3.312653 -18.526878 25.195696 3.509230 -38.277802 -15.106443 6.450109 58.921078 -1.062958 3.432119 -35.587540 -9.441923 -1.545719 
-13.433184 41.447060 72.804565 -7.207031 -15.478517 109.811844 19.560547 6.455078 6.289063 -19.335938 -0.625000 4.121093 -17.382813 -0.751953 25.917969 16.142578 -13.535156 25.056307 1.582031 1.845703 -0.068359 -56.884766 8.916017 -23.857422 -84.121094 -3.623047 -65.361328 37.656254 -134.736328 -27.428816 8.251954 0.947266 -0.136880 70.898438 4.228516 5.107422 43.642578 3.447266 -44.961231 23.593748 -14.541015 -6.923829 -41.855984 40.931744 42.450054 60.011715 0.227554 -3.392669 -23.305677 33.350311 8.992463 -39.798393 -15.984758 7.711544 59.999496 -0.555435 3.230488 -35.063477 -8.442846 -0.695033 
-13.521013 41.052139 71.885124 -7.382812 -15.478517 108.932938 20.468750 7.011719 6.300020 -19.160156 -0.449219 3.769455 -18.945313 -0.341797 26.406191 15.966799 -13.535157 25.583651 1.748047 2.373047 0.097252 -55.029293 8.730469 -27.166487 -81.552734 -3.427734 -68.466209 37.607430 -135.751953 -26.950174 8.427734 0.781250 -0.107555 70.595703 2.070313 1.621104 45.556641 3.486328 -49.424419 20.332029 -16.406248 -6.660155 -40.665192 42.534901 46.567886 63.860069 0.715160 -3.623522 -26.403177 38.010460 13.126519 -40.112820 -17.196074 7.945072 60.168987 -0.887194 3.401774 -34.463177 -7.894611 0.016085 
-13.529954 40.810951 70.731232 -7.734374 -15.126953 109.460335 20.849607 7.460938 6.083852 -18.984375 -0.097656 3.417952 -20.351561 0.205078 26.513704 15.791017 -13.359375 25.759460 2.099609 3.251953 0.048828 -53.837891 8.828126 -29.959440 -79.082031 -3.525390 -71.113281 38.066422 -136.806641 -26.784033 8.427734 0.781250 -0.107555 69.882813 -0.820313 -2.763804 49.111324 3.642578 -56.406250 15.683593 -18.857422 -5.996094 -39.600998 43.121426 49.360443 66.842445 0.724547 -3.573948 -27.554068 39.040039 14.161449 -38.851261 -18.767427 7.784352 59.121620 -0.887014 3.186745 -33.668011 -7.267292 0.569462 
-13.453519 40.767223 69.276855 -8.623047 -14.951171 111.796867 20.390627 8.417969 5.509242 -18.984375 0.078125 2.539062 -21.064453 0.859375 26.074221 16.142578 -13.183595 25.407928 2.265625 4.492188 0.165251 -52.929688 9.296875 -31.404667 -77.480469 -3.544922 -74.101563 38.818371 -138.281250 -26.774076 8.261718 1.298828 -0.185547 69.023438 -4.121094 -7.988980 51.933598 3.642578 -62.764290 11.777344 -19.873047 -4.905662 -39.573307 41.993267 49.937088 68.247765 0.675147 -3.668671 -28.293167 37.721989 14.108148 -35.864925 -21.209127 6.404020 56.479374 -0.701407 3.170572 -32.423691 -8.232282 0.144700 
